<svg xmlns="http://www.w3.org/2000/svg" viewBox="0 0 1000 560">
<rect width="100%" height="100%" fill="white"/>
<style>text{font-family:Arial,sans-serif;fill:#172033;font-size:14px}</style>
<text x="72" y="35" font-size="17">i2c: expected best LUT gap</text>
<path d="M72 70V450H455" fill="none" stroke="#667085"/>
<polyline points="72.0,153.9 75.9,227.8 79.7,267.0 83.6,293.4 87.5,312.9 91.3,328.0 95.2,339.9 99.1,349.6 102.9,357.4 106.8,363.9 110.7,369.2 114.6,373.8 118.4,377.6 122.3,380.9 126.2,383.7 130.0,386.1 133.9,388.3 137.8,390.2 141.6,391.9 145.5,393.4 149.4,394.8 153.2,396.0 157.1,397.2 161.0,398.2 164.8,399.2 168.7,400.1 172.6,401.0 176.5,401.8 180.3,402.5 184.2,403.2 188.1,403.9 191.9,404.5 195.8,405.1 199.7,405.7 203.5,406.3 207.4,406.8 211.3,407.4 215.1,407.9 219.0,408.3 222.9,408.8 226.7,409.3 230.6,409.7 234.5,410.1 238.4,410.5 242.2,410.9 246.1,411.3 250.0,411.7 253.8,412.1 257.7,412.4 261.6,412.8 265.4,413.1 269.3,413.5 273.2,413.8 277.0,414.1 280.9,414.4 284.8,414.7 288.6,415.0 292.5,415.3 296.4,415.6 300.3,415.9 304.1,416.2 308.0,416.5 311.9,416.7 315.7,417.0 319.6,417.2 323.5,417.5 327.3,417.7 331.2,418.0 335.1,418.2 338.9,418.5 342.8,418.7 346.7,418.9 350.5,419.1 354.4,419.4 358.3,419.6 362.2,419.8 366.0,420.0 369.9,420.2 373.8,420.4 377.6,420.6 381.5,420.8 385.4,421.0 389.2,421.2 393.1,421.4 397.0,421.6 400.8,421.8 404.7,421.9 408.6,422.1 412.4,422.3 416.3,422.5 420.2,422.6 424.1,422.8 427.9,423.0 431.8,423.1 435.7,423.3 439.5,423.5 443.4,423.6 447.3,423.8 451.1,423.9 455.0,424.1" fill="none" stroke="#dc2626" stroke-width="2.5"/>
<polyline points="72.0,74.4 75.9,181.7 79.7,231.9 83.6,262.9 87.5,284.4 91.3,300.5 95.2,313.2 99.1,323.5 102.9,332.2 106.8,339.6 110.7,346.0 114.6,351.7 118.4,356.7 122.3,361.3 126.2,365.4 130.0,369.2 133.9,372.6 137.8,375.8 141.6,378.8 145.5,381.5 149.4,384.1 153.2,386.5 157.1,388.8 161.0,390.9 164.8,392.9 168.7,394.8 172.6,396.7 176.5,398.4 180.3,400.0 184.2,401.6 188.1,403.1 191.9,404.6 195.8,406.0 199.7,407.3 203.5,408.6 207.4,409.9 211.3,411.1 215.1,412.2 219.0,413.3 222.9,414.4 226.7,415.5 230.6,416.5 234.5,417.5 238.4,418.4 242.2,419.4 246.1,420.3 250.0,421.2 253.8,422.0 257.7,422.9 261.6,423.7 265.4,424.5 269.3,425.3 273.2,426.0 277.0,426.8 280.9,427.5 284.8,428.2 288.6,428.9 292.5,429.6 296.4,430.3 300.3,430.9 304.1,431.6 308.0,432.2 311.9,432.8 315.7,433.4 319.6,434.0 323.5,434.6 327.3,435.2 331.2,435.7 335.1,436.3 338.9,436.8 342.8,437.4 346.7,437.9 350.5,438.4 354.4,438.9 358.3,439.4 362.2,439.9 366.0,440.4 369.9,440.9 373.8,441.4 377.6,441.8 381.5,442.3 385.4,442.8 389.2,443.2 393.1,443.7 397.0,444.1 400.8,444.5 404.7,444.9 408.6,445.4 412.4,445.8 416.3,446.2 420.2,446.6 424.1,447.0 427.9,447.4 431.8,447.8 435.7,448.1 439.5,448.5 443.4,448.9 447.3,449.3 451.1,449.6 455.0,450.0" fill="none" stroke="#64748b" stroke-width="2.5"/>
<polyline points="72.0,70.0 75.9,177.5 79.7,228.1 83.6,259.4 87.5,281.3 91.3,297.6 95.2,310.4 99.1,320.8 102.9,329.5 106.8,336.9 110.7,343.3 114.6,349.0 118.4,354.0 122.3,358.5 126.2,362.6 130.0,366.3 133.9,369.7 137.8,372.9 141.6,375.8 145.5,378.5 149.4,381.0 153.2,383.4 157.1,385.6 161.0,387.7 164.8,389.7 168.7,391.6 172.6,393.4 176.5,395.1 180.3,396.7 184.2,398.2 188.1,399.7 191.9,401.1 195.8,402.5 199.7,403.8 203.5,405.1 207.4,406.3 211.3,407.5 215.1,408.6 219.0,409.7 222.9,410.8 226.7,411.8 230.6,412.8 234.5,413.8 238.4,414.7 242.2,415.7 246.1,416.6 250.0,417.4 253.8,418.3 257.7,419.1 261.6,419.9 265.4,420.7 269.3,421.5 273.2,422.2 277.0,423.0 280.9,423.7 284.8,424.4 288.6,425.1 292.5,425.8 296.4,426.4 300.3,427.1 304.1,427.7 308.0,428.3 311.9,428.9 315.7,429.5 319.6,430.1 323.5,430.7 327.3,431.3 331.2,431.9 335.1,432.4 338.9,433.0 342.8,433.5 346.7,434.0 350.5,434.5 354.4,435.0 358.3,435.5 362.2,436.0 366.0,436.5 369.9,437.0 373.8,437.5 377.6,438.0 381.5,438.4 385.4,438.9 389.2,439.3 393.1,439.8 397.0,440.2 400.8,440.6 404.7,441.1 408.6,441.5 412.4,441.9 416.3,442.3 420.2,442.7 424.1,443.1 427.9,443.5 431.8,443.9 435.7,444.3 439.5,444.7 443.4,445.1 447.3,445.4 451.1,445.8 455.0,446.2" fill="none" stroke="#16a34a" stroke-width="2.5"/>
<polyline points="72.0,207.8 75.9,251.8 79.7,274.7 83.6,291.0 87.5,303.7 91.3,314.2 95.2,323.0 99.1,330.7 102.9,337.5 106.8,343.5 110.7,348.9 114.6,353.8 118.4,358.3 122.3,362.5 126.2,366.3 130.0,369.8 133.9,373.1 137.8,376.2 141.6,379.1 145.5,381.8 149.4,384.3 153.2,386.7 157.1,389.0 161.0,391.1 164.8,393.1 168.7,395.0 172.6,396.8 176.5,398.5 180.3,400.1 184.2,401.6 188.1,403.1 191.9,404.5 195.8,405.8 199.7,407.0 203.5,408.2 207.4,409.4 211.3,410.5 215.1,411.5 219.0,412.5 222.9,413.5 226.7,414.4 230.6,415.3 234.5,416.2 238.4,417.0 242.2,417.8 246.1,418.6 250.0,419.3 253.8,420.0 257.7,420.7 261.6,421.4 265.4,422.0 269.3,422.6 273.2,423.2 277.0,423.8 280.9,424.4 284.8,424.9 288.6,425.5 292.5,426.0 296.4,426.5 300.3,427.0 304.1,427.5 308.0,428.0 311.9,428.4 315.7,428.9 319.6,429.3 323.5,429.8 327.3,430.2 331.2,430.6 335.1,431.0 338.9,431.4 342.8,431.8 346.7,432.2 350.5,432.6 354.4,432.9 358.3,433.3 362.2,433.7 366.0,434.0 369.9,434.4 373.8,434.7 377.6,435.0 381.5,435.4 385.4,435.7 389.2,436.0 393.1,436.3 397.0,436.6 400.8,437.0 404.7,437.3 408.6,437.6 412.4,437.9 416.3,438.1 420.2,438.4 424.1,438.7 427.9,439.0 431.8,439.3 435.7,439.6 439.5,439.8 443.4,440.1 447.3,440.4 451.1,440.6 455.0,440.9" fill="none" stroke="#2563eb" stroke-width="2.5"/>
<text x="72" y="470">k = 1</text><text x="455" y="470" text-anchor="end">k = 100</text>
<text x="64" y="75" text-anchor="end">20.70</text>
<text x="64" y="455" text-anchor="end">3.38</text>
<text x="572" y="35" font-size="17">max: probability of at least one feasible run</text>
<path d="M572 70V450H955" fill="none" stroke="#667085"/>
<polyline points="572.0,450.0 575.9,449.9 579.7,449.9 583.6,449.8 587.5,449.7 591.3,449.7 595.2,449.6 599.1,449.5 602.9,449.5 606.8,449.4 610.7,449.3 614.6,449.3 618.4,449.2 622.3,449.1 626.2,449.1 630.0,449.0 633.9,448.9 637.8,448.9 641.6,448.8 645.5,448.7 649.4,448.7 653.2,448.6 657.1,448.5 661.0,448.5 664.8,448.4 668.7,448.3 672.6,448.3 676.5,448.2 680.3,448.1 684.2,448.1 688.1,448.0 691.9,448.0 695.8,447.9 699.7,447.8 703.5,447.8 707.4,447.7 711.3,447.6 715.1,447.6 719.0,447.5 722.9,447.4 726.7,447.4 730.6,447.3 734.5,447.2 738.4,447.2 742.2,447.1 746.1,447.0 750.0,447.0 753.8,446.9 757.7,446.8 761.6,446.8 765.4,446.7 769.3,446.7 773.2,446.6 777.0,446.5 780.9,446.5 784.8,446.4 788.6,446.3 792.5,446.3 796.4,446.2 800.3,446.1 804.1,446.1 808.0,446.0 811.9,446.0 815.7,445.9 819.6,445.8 823.5,445.8 827.3,445.7 831.2,445.6 835.1,445.6 838.9,445.5 842.8,445.4 846.7,445.4 850.5,445.3 854.4,445.3 858.3,445.2 862.2,445.1 866.0,445.1 869.9,445.0 873.8,444.9 877.6,444.9 881.5,444.8 885.4,444.8 889.2,444.7 893.1,444.6 897.0,444.6 900.8,444.5 904.7,444.4 908.6,444.4 912.4,444.3 916.3,444.3 920.2,444.2 924.1,444.1 927.9,444.1 931.8,444.0 935.7,443.9 939.5,443.9 943.4,443.8 947.3,443.8 951.1,443.7 955.0,443.6" fill="none" stroke="#dc2626" stroke-width="2.5"/>
<polyline points="572.0,443.1 575.9,436.3 579.7,429.5 583.6,422.8 587.5,416.3 591.3,409.8 595.2,403.4 599.1,397.1 602.9,390.9 606.8,384.8 610.7,378.8 614.6,372.8 618.4,367.0 622.3,361.2 626.2,355.5 630.0,349.9 633.9,344.3 637.8,338.8 641.6,333.5 645.5,328.1 649.4,322.9 653.2,317.7 657.1,312.6 661.0,307.6 664.8,302.6 668.7,297.7 672.6,292.9 676.5,288.2 680.3,283.5 684.2,278.8 688.1,274.3 691.9,269.8 695.8,265.3 699.7,260.9 703.5,256.6 707.4,252.3 711.3,248.1 715.1,244.0 719.0,239.9 722.9,235.9 726.7,231.9 730.6,227.9 734.5,224.1 738.4,220.2 742.2,216.5 746.1,212.7 750.0,209.1 753.8,205.4 757.7,201.9 761.6,198.3 765.4,194.9 769.3,191.4 773.2,188.0 777.0,184.7 780.9,181.4 784.8,178.1 788.6,174.9 792.5,171.8 796.4,168.6 800.3,165.5 804.1,162.5 808.0,159.5 811.9,156.5 815.7,153.6 819.6,150.7 823.5,147.9 827.3,145.0 831.2,142.3 835.1,139.5 838.9,136.8 842.8,134.1 846.7,131.5 850.5,128.9 854.4,126.3 858.3,123.8 862.2,121.3 866.0,118.8 869.9,116.4 873.8,114.0 877.6,111.6 881.5,109.3 885.4,107.0 889.2,104.7 893.1,102.4 897.0,100.2 900.8,98.0 904.7,95.8 908.6,93.7 912.4,91.6 916.3,89.5 920.2,87.4 924.1,85.4 927.9,83.4 931.8,81.4 935.7,79.4 939.5,77.5 943.4,75.6 947.3,73.7 951.1,71.8 955.0,70.0" fill="none" stroke="#64748b" stroke-width="2.5"/>
<polyline points="572.0,444.2 575.9,438.4 579.7,432.7 583.6,427.0 587.5,421.4 591.3,415.8 595.2,410.4 599.1,404.9 602.9,399.6 606.8,394.2 610.7,389.0 614.6,383.8 618.4,378.6 622.3,373.6 626.2,368.5 630.0,363.6 633.9,358.6 637.8,353.8 641.6,348.9 645.5,344.2 649.4,339.5 653.2,334.8 657.1,330.2 661.0,325.6 664.8,321.1 668.7,316.7 672.6,312.2 676.5,307.9 680.3,303.5 684.2,299.3 688.1,295.0 691.9,290.9 695.8,286.7 699.7,282.6 703.5,278.6 707.4,274.6 711.3,270.6 715.1,266.7 719.0,262.8 722.9,259.0 726.7,255.2 730.6,251.5 734.5,247.8 738.4,244.1 742.2,240.5 746.1,236.9 750.0,233.3 753.8,229.8 757.7,226.3 761.6,222.9 765.4,219.5 769.3,216.1 773.2,212.8 777.0,209.5 780.9,206.3 784.8,203.0 788.6,199.8 792.5,196.7 796.4,193.6 800.3,190.5 804.1,187.5 808.0,184.4 811.9,181.5 815.7,178.5 819.6,175.6 823.5,172.7 827.3,169.8 831.2,167.0 835.1,164.2 838.9,161.5 842.8,158.7 846.7,156.0 850.5,153.3 854.4,150.7 858.3,148.1 862.2,145.5 866.0,142.9 869.9,140.4 873.8,137.9 877.6,135.4 881.5,132.9 885.4,130.5 889.2,128.1 893.1,125.7 897.0,123.4 900.8,121.1 904.7,118.8 908.6,116.5 912.4,114.3 916.3,112.0 920.2,109.8 924.1,107.7 927.9,105.5 931.8,103.4 935.7,101.3 939.5,99.2 943.4,97.1 947.3,95.1 951.1,93.1 955.0,91.1" fill="none" stroke="#16a34a" stroke-width="2.5"/>
<text x="572" y="470">k = 1</text><text x="955" y="470" text-anchor="end">k = 100</text>
<text x="564" y="75" text-anchor="end">0.70</text>
<text x="564" y="455" text-anchor="end">0.00</text>
<line x1="75" x2="102" y1="520" y2="520" stroke="#dc2626" stroke-width="3"/>
<text x="109" y="525">旧 0.01</text>
<line x1="300" x2="327" y1="520" y2="520" stroke="#64748b" stroke-width="3"/>
<text x="334" y="525">初始网络</text>
<line x1="525" x2="552" y1="520" y2="520" stroke="#16a34a" stroke-width="3"/>
<text x="559" y="525">均匀随机</text>
<line x1="750" x2="777" y1="520" y2="520" stroke="#2563eb" stroke-width="3"/>
<text x="784" y="525">滑动窗口</text>
</svg>
