<svg xmlns="http://www.w3.org/2000/svg" width="960" height="490" viewBox="0 0 960 490">
<rect width="100%" height="100%" fill="white"/>
<style>text{font-family:Arial,sans-serif;fill:#1f2937} .small{font-size:12px}.title{font-size:18px;font-weight:bold}</style>
<text x="30" y="34" class="title">100×10 冻结策略：各组平均表现</text>
<text x="30" y="54" class="small">每点为三个训练种子的均值；各面板使用标明的局部纵轴</text>
<text x="47" y="88" font-size="16" font-weight="bold">int2float</text>
<text x="47" y="107" class="small">平均最佳可行 LUT ↓</text>
<line x1="65" y1="140" x2="65" y2="376" stroke="#94a3b8"/>
<line x1="65" y1="376.0" x2="291" y2="376.0" stroke="#e2e8f0"/>
<text x="57" y="380.0" text-anchor="end" class="small">46.47</text>
<line x1="65" y1="258.0" x2="291" y2="258.0" stroke="#e2e8f0"/>
<text x="57" y="262.0" text-anchor="end" class="small">46.73</text>
<line x1="65" y1="140.0" x2="291" y2="140.0" stroke="#e2e8f0"/>
<text x="57" y="144.0" text-anchor="end" class="small">47.00</text>
<circle cx="93" cy="298.1" r="6" fill="#64748b"/>
<text x="93" y="288.1" text-anchor="middle" class="small">46.64</text>
<text x="93" y="401" text-anchor="middle" class="small">1</text>
<circle cx="139" cy="303.1" r="6" fill="#38bdf8"/>
<text x="139" y="293.1" text-anchor="middle" class="small">46.63</text>
<text x="139" y="401" text-anchor="middle" class="small">2</text>
<circle cx="185" cy="353.2" r="6" fill="#0ea5e9"/>
<text x="185" y="343.2" text-anchor="middle" class="small">46.52</text>
<text x="185" y="401" text-anchor="middle" class="small">3</text>
<circle cx="231" cy="162.8" r="6" fill="#f59e0b"/>
<text x="231" y="152.8" text-anchor="middle" class="small">46.94</text>
<text x="231" y="401" text-anchor="middle" class="small">4</text>
<circle cx="277" cy="268.0" r="6" fill="#ef4444"/>
<text x="277" y="258.0" text-anchor="middle" class="small">46.71</text>
<text x="277" y="401" text-anchor="middle" class="small">5</text>
<text x="347" y="88" font-size="16" font-weight="bold">i2c</text>
<text x="347" y="107" class="small">平均最佳可行 LUT ↓</text>
<line x1="365" y1="140" x2="365" y2="376" stroke="#94a3b8"/>
<line x1="365" y1="376.0" x2="591" y2="376.0" stroke="#e2e8f0"/>
<text x="357" y="380.0" text-anchor="end" class="small">305.23</text>
<line x1="365" y1="258.0" x2="591" y2="258.0" stroke="#e2e8f0"/>
<text x="357" y="262.0" text-anchor="end" class="small">313.23</text>
<line x1="365" y1="140.0" x2="591" y2="140.0" stroke="#e2e8f0"/>
<text x="357" y="144.0" text-anchor="end" class="small">321.24</text>
<circle cx="393" cy="162.8" r="6" fill="#64748b"/>
<text x="393" y="152.8" text-anchor="middle" class="small">319.69</text>
<text x="393" y="401" text-anchor="middle" class="small">1</text>
<circle cx="439" cy="179.9" r="6" fill="#38bdf8"/>
<text x="439" y="169.9" text-anchor="middle" class="small">318.53</text>
<text x="439" y="401" text-anchor="middle" class="small">2</text>
<circle cx="485" cy="213.4" r="6" fill="#0ea5e9"/>
<text x="485" y="203.4" text-anchor="middle" class="small">316.26</text>
<text x="485" y="401" text-anchor="middle" class="small">3</text>
<circle cx="531" cy="263.6" r="6" fill="#f59e0b"/>
<text x="531" y="253.6" text-anchor="middle" class="small">312.86</text>
<text x="531" y="401" text-anchor="middle" class="small">4</text>
<circle cx="577" cy="353.2" r="6" fill="#ef4444"/>
<text x="577" y="343.2" text-anchor="middle" class="small">306.78</text>
<text x="577" y="401" text-anchor="middle" class="small">5</text>
<text x="647" y="88" font-size="16" font-weight="bold">max</text>
<text x="647" y="107" class="small">可行率 ↑</text>
<line x1="665" y1="140" x2="665" y2="376" stroke="#94a3b8"/>
<line x1="665" y1="376.0" x2="891" y2="376.0" stroke="#e2e8f0"/>
<text x="657" y="380.0" text-anchor="end" class="small">0.03</text>
<line x1="665" y1="258.0" x2="891" y2="258.0" stroke="#e2e8f0"/>
<text x="657" y="262.0" text-anchor="end" class="small">0.26</text>
<line x1="665" y1="140.0" x2="891" y2="140.0" stroke="#e2e8f0"/>
<text x="657" y="144.0" text-anchor="end" class="small">0.49</text>
<circle cx="693" cy="289.7" r="6" fill="#64748b"/>
<text x="693" y="279.7" text-anchor="middle" class="small">0.20</text>
<text x="693" y="401" text-anchor="middle" class="small">1</text>
<circle cx="739" cy="301.3" r="6" fill="#38bdf8"/>
<text x="739" y="291.3" text-anchor="middle" class="small">0.18</text>
<text x="739" y="401" text-anchor="middle" class="small">2</text>
<circle cx="785" cy="255.1" r="6" fill="#0ea5e9"/>
<text x="785" y="245.1" text-anchor="middle" class="small">0.27</text>
<text x="785" y="401" text-anchor="middle" class="small">3</text>
<circle cx="831" cy="353.2" r="6" fill="#f59e0b"/>
<text x="831" y="343.2" text-anchor="middle" class="small">0.08</text>
<text x="831" y="401" text-anchor="middle" class="small">4</text>
<circle cx="877" cy="162.8" r="6" fill="#ef4444"/>
<text x="877" y="152.8" text-anchor="middle" class="small">0.44</text>
<text x="877" y="401" text-anchor="middle" class="small">5</text>
<text x="35" y="447" class="small">1 原实现　2 窗口/0.001/旧　3 窗口/0.001/新　4 窗口/0.01/旧　5 窗口/0.01/新</text>
</svg>
